# xmcd
#
# Track frame offsets: 
#        160
#        15860
#        34900
#        53552
#        73485
#        88295
#        107860
#        123557
#        138550
#        157857
#
# Disc length: 2450 seconds
#
# Revision: 3
# Processed by: cddbd v1.5.2PL0 Copyright (c) Steve Scherf et al.
# Submitted via: ExactAudioCopy v1.0b3
#
DISCID=8709900a
DTITLE=Леонид Агутин - Летний дождь
DYEAR=1998
DGENRE=Latin
TTITLE0=Не унывай!
TTITLE1=Летний дождь
TTITLE2=Полночи
TTITLE3=Танцевали пары
TTITLE4=Мало, Мария
TTITLE5=Без тебя
TTITLE6=Королева
TTITLE7=Папа, мама
TTITLE8=Февраль
TTITLE9=Белый камень
EXTD=
EXTT0=
EXTT1=
EXTT2=
EXTT3=
EXTT4=
EXTT5=
EXTT6=
EXTT7=
EXTT8=
EXTT9=
PLAYORDER=
